<svg id="bem-estar_social_D_" data-name="bem-estar social (D)" xmlns="http://www.w3.org/2000/svg" xmlns:xlink="http://www.w3.org/1999/xlink" width="150" height="150" viewBox="0 0 150 150">
  <defs>
    <linearGradient id="linear-gradient" x1="0.5" x2="0.5" y2="1" gradientUnits="objectBoundingBox">
      <stop offset="0" stop-color="#ff9300"/>
      <stop offset="1" stop-color="#ff4600"/>
    </linearGradient>
  </defs>
  <g id="Grupo_51" data-name="Grupo 51" transform="translate(89.596)">
    <g id="Grupo_50" data-name="Grupo 50">
      <path id="Caminho_52" data-name="Caminho 52" d="M325.723,23.819a2.511,2.511,0,0,0-.5.051,20.566,20.566,0,0,1-14.7-2.562l-1.1-.667a2.263,2.263,0,0,0-.214-.093c-.073-.035-.146-.065-.221-.1a2.5,2.5,0,0,0-1.732,0c-.076.03-.148.06-.221.1a2.3,2.3,0,0,0-.214.093l-1.1.667A20.553,20.553,0,0,1,290.99,23.87a2.517,2.517,0,0,0-3.02,2.466V51.681a19.8,19.8,0,0,0,2.794,10.14,19.535,19.535,0,0,0,9.111,7.983l7.243,3.121a2.5,2.5,0,0,0,1.978,0l7.246-3.121a19.536,19.536,0,0,0,9.1-7.983,19.8,19.8,0,0,0,2.8-10.14V26.336A2.517,2.517,0,0,0,325.723,23.819ZM305.588,66.786l-3.732-1.608a14.535,14.535,0,0,1-6.77-5.94A14.768,14.768,0,0,1,293,51.688V29.228a25.509,25.509,0,0,0,12.584-2.207ZM323.206,51.68a14.768,14.768,0,0,1-2.081,7.55,14.535,14.535,0,0,1-6.77,5.94l-3.732,1.618V27.02a25.525,25.525,0,0,0,12.584,2.207Z" transform="translate(-287.97 -20.297)" fill="url(#linear-gradient)"/>
    </g>
  </g>
  <g id="Grupo_53" data-name="Grupo 53" transform="translate(137.193 52.933)">
    <g id="Grupo_52" data-name="Grupo 52">
      <path id="Caminho_53" data-name="Caminho 53" d="M444.115,173.59a2.517,2.517,0,1,0-4.673,1.872q.029.072.062.142a60.029,60.029,0,0,1,5.014,24.161,2.517,2.517,0,1,0,5.034,0A64.972,64.972,0,0,0,444.115,173.59Z" transform="translate(-439.261 -172.009)" fill="url(#linear-gradient)"/>
    </g>
  </g>
  <g id="Grupo_55" data-name="Grupo 55" transform="translate(24.912 10.048)">
    <g id="Grupo_54" data-name="Grupo 54">
      <path id="Caminho_54" data-name="Caminho 54" d="M130.328,52.236a65.392,65.392,0,0,0-49.722,22.9,2.517,2.517,0,1,0,3.826,3.272,60.351,60.351,0,0,1,45.9-21.141,2.517,2.517,0,1,0,0-5.034Z" transform="translate(-80.001 -52.236)" fill="url(#linear-gradient)"/>
    </g>
  </g>
  <g id="Grupo_57" data-name="Grupo 57" transform="translate(0 37.723)">
    <g id="Grupo_56" data-name="Grupo 56">
      <path id="Caminho_55" data-name="Caminho 55" d="M147.715,206.035l-16.639-18.722a15.483,15.483,0,0,0-3.08-2.649c5.307-4.966,6.03-13.83,1.614-19.8s-12.3-6.781-17.6-1.815-6.03,13.83-1.614,19.8a13.3,13.3,0,0,0,2.021,2.18,15.272,15.272,0,0,0-2.48,2.232l-4.545,4.853a3.694,3.694,0,0,1-5.64-.127L83.1,173.265a15.385,15.385,0,0,0-2.318-2.123c6.909-5.142,8.8-15.609,4.23-23.378s-13.88-9.9-20.788-4.757-8.8,15.609-4.23,23.378a16.063,16.063,0,0,0,4.23,4.757,15.493,15.493,0,0,0-2.315,2.126L49.171,187.607l-11.223-9.065a15.424,15.424,0,0,0-2.088-1.864,15.9,15.9,0,0,0,2.765-2.724h6.368a2.669,2.669,0,0,0,2.5-2.81,3.1,3.1,0,0,0-.264-1.258l-5.565-12.52a17.356,17.356,0,0,0-1.923-4.358,2.724,2.724,0,0,0-.553-.8c-5.091-7.259-14.452-8.5-20.907-2.777a16,16,0,0,0-2.662,3.058,3.313,3.313,0,0,0-.27.391,17.684,17.684,0,0,0-2,4.465L7.776,169.88a2.984,2.984,0,0,0,1.111,3.775,2.281,2.281,0,0,0,1.1.3h6.388a15.761,15.761,0,0,0,2.75,2.7,15.46,15.46,0,0,0-2.235,2.055L2.286,195.322a9.566,9.566,0,0,0,0,12.41A7.393,7.393,0,0,0,7.8,210.3a7.376,7.376,0,0,0,5.058-2.095l-5.288,23.9a2.856,2.856,0,0,0,1.8,3.423,2.243,2.243,0,0,0,.619.089h5v8.435c0,4.646,3.344,8.415,7.476,8.418a7.037,7.037,0,0,0,5.025-2.176,6.915,6.915,0,0,0,10.566-.591,9.027,9.027,0,0,0,1.935-5.651v-8.435h5a2.669,2.669,0,0,0,2.5-2.809,3.141,3.141,0,0,0-.074-.683l-6.168-27.9,3.45,2a8.99,8.99,0,0,0,4.823,1.265,2.433,2.433,0,0,0,.483-.014c.11,0,.225.02.288.02a7.444,7.444,0,0,0,5.52-2.573l4.178-4.7v43.821c-.012,4.641,3.324,8.415,7.451,8.428a7.031,7.031,0,0,0,5.05-2.186,6.915,6.915,0,0,0,10.566-.591A9.027,9.027,0,0,0,85,244.053V200.231l8,9a12.186,12.186,0,0,0,14.5,3.4v31.422c-.012,4.641,3.324,8.415,7.451,8.428a7.031,7.031,0,0,0,5.05-2.186,6.915,6.915,0,0,0,10.566-.591,9.027,9.027,0,0,0,1.935-5.651V214.017l4.178,4.428a7.21,7.21,0,0,0,11.038,0,9.564,9.564,0,0,0,0-12.407ZM120,165.52c4.142,0,7.5,3.776,7.5,8.435s-3.358,8.435-7.5,8.435-7.5-3.776-7.5-8.435S115.856,165.52,120,165.52Zm-57.5-8.435c0-6.211,4.477-11.246,10-11.246s10,5.035,10,11.246-4.477,11.246-10,11.246S62.495,163.3,62.495,157.085ZM17.552,168.331h-3.5l3.84-8.648a3.225,3.225,0,0,0,.145-.394,11.871,11.871,0,0,1,1.38-3.135c.045-.059.093-.121.135-.186,3.249-4.938,9.443-5.978,13.834-2.324a10.6,10.6,0,0,1,2.067,2.324c.04.062.085.121.13.18a11.76,11.76,0,0,1,1.385,3.141,3.223,3.223,0,0,0,.145.394l3.845,8.648h-3.5a2.419,2.419,0,0,0-2,1.125,9.64,9.64,0,0,1-7.215,4.4,12.63,12.63,0,0,0-1.53,0,9.653,9.653,0,0,1-7.16-4.4A2.419,2.419,0,0,0,17.552,168.331Zm126.632,46.136a2.655,2.655,0,0,1-1.979.924,2.737,2.737,0,0,1-2.035-.978l-8.446-8.969a2.31,2.31,0,0,0-3.535.095,3.01,3.01,0,0,0-.691,1.963v36.551a2.517,2.517,0,1,1-5,0V223.017a2.517,2.517,0,1,0-5,0v21.036a2.517,2.517,0,1,1-5,0V207.5a2.67,2.67,0,0,0-2.5-2.813,2.359,2.359,0,0,0-1.716.766,7.6,7.6,0,0,1-11.632-.082c-.04-.045-.079-.091-.118-.137L84.281,191.459a2.309,2.309,0,0,0-3.536-.039,3,3,0,0,0-.75,2.024v50.609a2.517,2.517,0,1,1-5,0V210.314a2.517,2.517,0,1,0-5,0v33.739a2.517,2.517,0,1,1-5,0V193.444a2.669,2.669,0,0,0-2.5-2.811,2.368,2.368,0,0,0-1.767.823l-8.438,9.489a2.686,2.686,0,0,1-1.81.931c-.065,0-.25-.034-.325-.039s-.13,0-.193,0a2.075,2.075,0,0,0-.35,0,.761.761,0,0,0-.25.042,4.687,4.687,0,0,1-2.345-.641l-8.358-4.861a2.373,2.373,0,0,0-3.369,1.205,3.128,3.128,0,0,0-.206,1.969l6.73,30.444h-4.32a2.67,2.67,0,0,0-2.5,2.812v11.246a2.67,2.67,0,0,1-2.5,2.812,2.67,2.67,0,0,1-2.5-2.812V232.806a2.67,2.67,0,0,0-2.5-2.812,2.67,2.67,0,0,0-2.5,2.812v11.246a2.67,2.67,0,0,1-2.5,2.812,2.67,2.67,0,0,1-2.5-2.812V232.806a2.67,2.67,0,0,0-2.5-2.812H13.2l6.73-30.455a2.85,2.85,0,0,0-1.826-3.4,2.323,2.323,0,0,0-2.394.77l-5.923,6.852a2.589,2.589,0,0,1-3.963.025,3.452,3.452,0,0,1,0-4.492L20.442,182.67a9.486,9.486,0,0,1,5.94-3.163c.373.031.75.067,1.12.067s.75-.037,1.12-.067a9.486,9.486,0,0,1,5.94,3.163,2.512,2.512,0,0,0,.31.3l13.106,10.583a2.3,2.3,0,0,0,3.225-.3l14.251-16.026a9.236,9.236,0,0,1,14.121,0l16.671,18.781a8.272,8.272,0,0,0,12.578.183l4.59-4.9a9.424,9.424,0,0,1,14.121,0l16.646,18.72A3.437,3.437,0,0,1,144.184,214.468Z" transform="translate(0 -140.204)" fill="url(#linear-gradient)"/>
    </g>
  </g>
</svg>
