<svg id="créditos_D_" data-name="créditos (D)" xmlns="http://www.w3.org/2000/svg" width="211.371" height="24" viewBox="0 0 211.371 24">
  <text id="Made_with" data-name="Made with" transform="translate(0 1)" fill="#fee5db" font-size="15" font-family="Raleway-Medium, Raleway" font-weight="500"><tspan x="0" y="14">Made with</tspan></text>
  <g id="Grupo_102" data-name="Grupo 102" transform="translate(-1021 -3761.653)">
    <path id="Caminho_70" data-name="Caminho 70" d="M147.126,238.585c.086.028.109-.054.149-.094q2.269-2.264,4.535-4.532a1.327,1.327,0,0,1,.17-.155.288.288,0,0,1,.4.023c.182.177.364.354.539.537a.315.315,0,0,1,.012.446c-.038.045-.081.086-.123.127q-1.866,1.866-3.735,3.73c-.106.106-.1.157,0,.26q1.884,1.873,3.759,3.755c.252.252.251.382,0,.636-.146.146-.291.294-.441.436a.3.3,0,0,1-.442.015,2.053,2.053,0,0,1-.153-.147q-2.261-2.26-4.522-4.52c-.04-.04-.063-.122-.149-.093Z" transform="translate(948.385 3534.804)" fill="#ff4600"/>
    <path id="Caminho_71" data-name="Caminho 71" d="M184.385,237.443a3.947,3.947,0,0,1-.794-.228c-.16-.073-.195-.239-.13-.463q.373-1.289.747-2.578,1.344-4.657,2.688-9.315c.1-.345.2-.69.306-1.033a.349.349,0,0,1,.477-.262c.165.043.33.086.494.136a.368.368,0,0,1,.292.532q-.472,1.637-.946,3.274-1.367,4.733-2.735,9.466a.775.775,0,0,1-.148.355A.324.324,0,0,1,184.385,237.443Z" transform="translate(918.795 3543.11)" fill="#ff4600"/>
    <path id="Caminho_72" data-name="Caminho 72" d="M221.138,238.655v.283c-.076.082-.149.166-.228.245q-2.228,2.23-4.458,4.458a1.266,1.266,0,0,1-.186.162.274.274,0,0,1-.371-.032c-.187-.18-.372-.362-.552-.55a.314.314,0,0,1,.01-.458c.151-.158.308-.31.462-.464q1.691-1.69,3.384-3.379c.1-.1.1-.148,0-.247-1.235-1.228-2.461-2.465-3.7-3.689-.335-.33-.321-.5.009-.8.127-.114.244-.24.372-.353a.3.3,0,0,1,.444-.006,1.859,1.859,0,0,1,.14.135l4.471,4.471C221.005,238.505,221.07,238.581,221.138,238.655Z" transform="translate(892.862 3534.804)" fill="#ff4600"/>
  </g>
  <path id="Caminho_73" data-name="Caminho 73" d="M38.5,45.8c-.122-.064-.2-.006-.231.1a10.459,10.459,0,0,1-3.543,4.689C33,52.1,31.289,53.633,29.578,55.164c-.239.214-.407.341-.712.059-2.212-2.044-4.453-4.057-6.656-6.111A7.558,7.558,0,0,1,20.3,46.137c-.048-.131.016-.425-.3-.34V41.6c.4-.095.354-.5.482-.758a4.971,4.971,0,0,1,7.894-1.638c.282.265.494.776.786.814.368.048.542-.52.846-.781A5.028,5.028,0,0,1,38.1,41.015c.1.207.029.562.4.588Zm-9.3-3.139c-.253-.572-.419-1.039-.656-1.465a3.87,3.87,0,0,0-6.968-.046,5.874,5.874,0,0,0,1.154,6.919c1.913,2.061,4.133,3.809,6.185,5.731a.353.353,0,0,0,.572,0c2.093-1.908,4.352-3.645,6.273-5.725a5.822,5.822,0,0,0,1.484-6.24,3.88,3.88,0,0,0-3.452-2.83,3.925,3.925,0,0,0-4.013,2.374C29.585,41.764,29.421,42.159,29.2,42.658Z" transform="translate(107 -34.891)" fill="#ff4600"/>
  <g id="Grupo_101" data-name="Grupo 101" transform="translate(161.385 -392.358)">
    <path id="Caminho_74" data-name="Caminho 74" d="M16.023,449.91c.164-.264-.066-.235-.2-.255-2.74-.4-4.453-2.766-4.181-5.764a10.114,10.114,0,0,1,4.328-7.669,4.475,4.475,0,0,1,4.9-.408,2.74,2.74,0,0,1,1.694,3.577c-.216.988-.591,1.114-1.381.462-.018-.015-.035-.031-.053-.047-1.885-1.6-3.219-1.344-4.367.877a8.032,8.032,0,0,0-.941,3.979c.048,1.516.944,2.1,2.349,1.532.69-.279,1.353-.625,2.033-.932.208-.094.435-.229.652-.029a.536.536,0,0,1,.071.594,9.1,9.1,0,0,1-1.122,2.626,3.6,3.6,0,0,1-2.389,1.174c-.295.064-.3.054-.408.283Z" transform="translate(0 -36.886)" fill="#fee5db"/>
    <path id="Caminho_75" data-name="Caminho 75" d="M181.224,491.607c.048-.048.109-.128.026-.159-1.374-.528-2.183-1.724-3.173-2.7-.92-.906-1.277-.975-2.365-.291-.652.41-1.308.812-1.963,1.216-.49.3-.734.119-.8-.409a2.189,2.189,0,0,1,.939-2.265c1.424-.933,2.829-1.9,4.329-2.711,1.956-1.063,3.58-.432,4.308,1.672a12.072,12.072,0,0,0,.657,1.615,1.759,1.759,0,0,0,2.153.977,8.35,8.35,0,0,0,2.086-.785c.27-.137.54-.328.839-.083a.982.982,0,0,1,.366.936,2.3,2.3,0,0,1-1.016,1.685,8.828,8.828,0,0,1-2.368,1.015c-.123.037-.454-.045-.23.288Z" transform="translate(-138.655 -78.582)" fill="#fee5db"/>
    <path id="Caminho_76" data-name="Caminho 76" d="M137.653,398.7c.567,0,1.1-.016,1.634,0s.777.276.629.824c-.006.022-.005.047-.011.069-.622,2.256-.275,2.267-2.652,2.2-.429-.012-.546.164-.64.533-.712,2.779-1.443,5.553-2.172,8.328a8.3,8.3,0,0,1-.271.867,1.7,1.7,0,0,1-1.713,1.192h-1.123c-1.587,0-1.581,0-1.165-1.569.816-3.087,1.624-6.176,2.453-9.333h-1.829c.245-.991.488-1.909.693-2.835.078-.353.315-.277.535-.284,1.378-.049,1.378-.048,1.746-1.424.283-1.058.58-2.112.844-3.175a1.531,1.531,0,0,1,.764-1.028,4.786,4.786,0,0,1,2.455-.715c.947.017,1.315.491,1.083,1.41-.378,1.492-.779,2.979-1.168,4.468C137.706,398.37,137.689,398.507,137.653,398.7Z" transform="translate(-101.7)" fill="#fee5db"/>
    <path id="Caminho_77" data-name="Caminho 77" d="M89.5,437.495c-1.192,4.585-2.367,9.071-3.513,13.564-.1.378-.229.5-.6.484-.725-.024-1.452.016-2.176-.015-.918-.039-1.322-.519-1.118-1.363.909-3.765,1.842-7.525,2.9-11.251.328-1.152.727-1.416,1.906-1.419C87.739,437.493,88.58,437.495,89.5,437.495Z" transform="translate(-60.533 -38.797)" fill="#fee5db"/>
    <path id="Caminho_78" data-name="Caminho 78" d="M216,427.406a5.757,5.757,0,0,1-.9-.187,1.463,1.463,0,0,1-.4-2.547,9.228,9.228,0,0,1,4.982-2.007c.921-.085,1.242.334,1.046,1.226A4.491,4.491,0,0,1,216,427.406Z" transform="translate(-174.066 -26.041)" fill="#fee5db"/>
    <path id="Caminho_79" data-name="Caminho 79" d="M112.1,399.58a3.051,3.051,0,0,1-1.165-.259,1.3,1.3,0,0,1-.691-1.74,3.015,3.015,0,0,1,4.287-1.3,1.339,1.339,0,0,1,.413,1.78A3.084,3.084,0,0,1,112.1,399.58Z" transform="translate(-84.688 -3.001)" fill="#fee5db"/>
  </g>
  <text id="and" transform="translate(98 3)" fill="#fee5db" font-size="15" font-family="Raleway-Medium, Raleway" font-weight="500"><tspan x="0" y="14">and</tspan></text>
  <text id="by" transform="translate(149 4)" fill="#fee5db" font-size="15" font-family="Raleway-Medium, Raleway" font-weight="500"><tspan x="0" y="14">by</tspan></text>
</svg>
