<svg id="educação_D_" data-name="educação (D)" xmlns="http://www.w3.org/2000/svg" xmlns:xlink="http://www.w3.org/1999/xlink" width="150" height="150" viewBox="0 0 150 150">
  <defs>
    <linearGradient id="linear-gradient" x1="0.5" x2="0.5" y2="1" gradientUnits="objectBoundingBox">
      <stop offset="0" stop-color="#ff9300"/>
      <stop offset="1" stop-color="#ff4600"/>
    </linearGradient>
  </defs>
  <g id="Grupo_46" data-name="Grupo 46">
    <g id="Grupo_45" data-name="Grupo 45">
      <g id="Grupo_44" data-name="Grupo 44">
        <path id="Caminho_25" data-name="Caminho 25" d="M290.473,213.482a3.16,3.16,0,0,0,4.248,1.379c.186-.095,18.764-9.532,27.927-12.426a3.158,3.158,0,0,0-1.906-6.022c-9.652,3.052-28.1,12.426-28.886,12.824A3.158,3.158,0,0,0,290.473,213.482Z" transform="translate(-210.141 -140.444)" fill="url(#linear-gradient)"/>
        <path id="Caminho_26" data-name="Caminho 26" d="M293.291,112.806a3.15,3.15,0,0,0,1.43-.344c.186-.095,18.764-9.532,27.927-12.426a3.158,3.158,0,0,0-1.906-6.022c-9.652,3.052-28.1,12.426-28.886,12.824a3.155,3.155,0,0,0,1.436,5.968Z" transform="translate(-210.141 -67.17)" fill="url(#linear-gradient)"/>
        <path id="Caminho_27" data-name="Caminho 27" d="M147.5,37.5A2.5,2.5,0,0,0,145,40v97.5a7.509,7.509,0,0,1-7.5,7.5h-60v-5.752C81.147,137.972,90.642,135,100,135c21.777,0,36.565,4.823,36.712,4.872A2.5,2.5,0,0,0,140,137.5V27.5a2.5,2.5,0,0,0-1.958-2.44s-1.96-.437-5.31-1.053a2.5,2.5,0,0,0-.9,4.917c1.278.235,2.348.442,3.173.608V134.177A141.188,141.188,0,0,0,100,130c-10.893,0-21.592,3.577-24.9,4.79A58.566,58.566,0,0,0,52.5,130,168.469,168.469,0,0,0,15,134.282V29.436A164.558,164.558,0,0,1,52.5,25a54.2,54.2,0,0,1,20,4.12V127.5a2.5,2.5,0,0,0,3.787,2.142c.248-.147,25.017-14.942,47-22.27A2.5,2.5,0,0,0,125,105V2.5a2.5,2.5,0,0,0-3.38-2.342c-20,7.5-40.242,20.1-40.445,20.222a2.5,2.5,0,1,0,2.65,4.24A267.206,267.206,0,0,1,120,6.156V103.21c-17.065,5.93-34.883,15.612-42.5,19.947V27.5a2.5,2.5,0,0,0-1.383-2.237A57.89,57.89,0,0,0,52.5,20a162.257,162.257,0,0,0-40.687,5.1A2.5,2.5,0,0,0,10,27.5v110a2.5,2.5,0,0,0,2.5,2.5,2.464,2.464,0,0,0,.685-.1A160.594,160.594,0,0,1,52.5,135a54.084,54.084,0,0,1,20,4.122V145h-60A7.509,7.509,0,0,1,5,137.5V40a2.5,2.5,0,0,0-5,0v97.5A12.514,12.514,0,0,0,12.5,150h125A12.514,12.514,0,0,0,150,137.5V40A2.5,2.5,0,0,0,147.5,37.5Z" transform="translate(-0.002 0)" fill="url(#linear-gradient)"/>
        <path id="Caminho_28" data-name="Caminho 28" d="M290.473,162.282a3.16,3.16,0,0,0,4.248,1.379c.186-.095,18.764-9.532,27.927-12.426a3.158,3.158,0,0,0-1.906-6.022c-9.652,3.052-28.1,12.426-28.886,12.824A3.158,3.158,0,0,0,290.473,162.282Z" transform="translate(-210.141 -103.807)" fill="url(#linear-gradient)"/>
        <path id="Caminho_29" data-name="Caminho 29" d="M290.473,264.682a3.16,3.16,0,0,0,4.248,1.379c.186-.095,18.764-9.532,27.927-12.426a3.158,3.158,0,0,0-1.906-6.022c-9.652,3.052-28.1,12.426-28.886,12.824A3.158,3.158,0,0,0,290.473,264.682Z" transform="translate(-210.141 -177.082)" fill="url(#linear-gradient)"/>
        <path id="Caminho_30" data-name="Caminho 30" d="M130.242,155.391c-19.49-4.574-41.638,1.253-42.569,1.5a3.156,3.156,0,0,0,.814,6.205,3.21,3.21,0,0,0,.821-.107c.212-.06,21.535-5.669,39.495-1.455a3.156,3.156,0,1,0,1.439-6.145Z" transform="translate(-62.522 -109.253)" fill="url(#linear-gradient)"/>
        <path id="Caminho_31" data-name="Caminho 31" d="M130.242,206.593c-19.49-4.57-41.638,1.253-42.569,1.5a3.156,3.156,0,0,0,.814,6.205,3.209,3.209,0,0,0,.821-.107c.212-.06,21.535-5.669,39.495-1.455a3.156,3.156,0,1,0,1.439-6.145Z" transform="translate(-62.522 -145.662)" fill="url(#linear-gradient)"/>
        <path id="Caminho_32" data-name="Caminho 32" d="M290.473,315.882a3.16,3.16,0,0,0,4.248,1.379c.186-.095,18.764-9.532,27.927-12.426a3.158,3.158,0,0,0-1.906-6.022c-9.652,3.052-28.1,12.426-28.886,12.824A3.158,3.158,0,0,0,290.473,315.882Z" transform="translate(-210.141 -213.72)" fill="url(#linear-gradient)"/>
        <path id="Caminho_33" data-name="Caminho 33" d="M130.242,257.792c-19.49-4.57-41.638,1.25-42.569,1.5a3.158,3.158,0,0,0,.814,6.208,3.2,3.2,0,0,0,.821-.111c.212-.06,21.535-5.669,39.495-1.455a3.156,3.156,0,1,0,1.439-6.145Z" transform="translate(-62.522 -182.069)" fill="url(#linear-gradient)"/>
        <path id="Caminho_34" data-name="Caminho 34" d="M130.242,360.191c-19.49-4.574-41.638,1.253-42.569,1.5a3.158,3.158,0,0,0,.814,6.208,3.2,3.2,0,0,0,.821-.111c.212-.06,21.535-5.669,39.495-1.455a3.156,3.156,0,1,0,1.439-6.145Z" transform="translate(-62.522 -254.882)" fill="url(#linear-gradient)"/>
        <path id="Caminho_35" data-name="Caminho 35" d="M130.242,308.99c-19.49-4.574-41.638,1.25-42.569,1.5a3.158,3.158,0,0,0,.814,6.208,3.2,3.2,0,0,0,.821-.111c.212-.06,21.535-5.669,39.495-1.455a3.156,3.156,0,1,0,1.439-6.145Z" transform="translate(-62.522 -218.473)" fill="url(#linear-gradient)"/>
      </g>
    </g>
  </g>
</svg>
