<svg id="instagram_footer_D_" data-name="instagram footer (D)" xmlns="http://www.w3.org/2000/svg" width="60" height="60" viewBox="0 0 60 60">
  <path id="Icon_awesome-instagram" data-name="Icon awesome-instagram" d="M30,16.854a15.383,15.383,0,1,0,15.38,15.383A15.357,15.357,0,0,0,30,16.854Zm0,25.384a10,10,0,1,1,10-10A10.018,10.018,0,0,1,30,42.239ZM49.6,16.225a3.587,3.587,0,1,1-3.587-3.588A3.579,3.579,0,0,1,49.6,16.225Zm10.186,3.642C59.556,15.06,58.459,10.8,54.938,7.3S47.175,2.69,42.37,2.449c-4.953-.281-19.8-.281-24.75,0-4.792.228-9.049,1.325-12.569,4.833S.446,15.047.206,19.853c-.281,4.954-.281,19.8,0,24.755.228,4.806,1.325,9.064,4.846,12.572s7.764,4.606,12.569,4.847c4.953.281,19.8.281,24.75,0,4.805-.228,9.062-1.325,12.569-4.847s4.6-7.765,4.846-12.572c.281-4.954.281-19.788,0-24.742Zm-6.4,30.057a10.124,10.124,0,0,1-5.7,5.7c-3.949,1.566-13.318,1.2-17.682,1.2s-13.747.348-17.682-1.2a10.124,10.124,0,0,1-5.7-5.7c-1.566-3.95-1.2-13.321-1.2-17.686s-.348-13.75,1.2-17.686a10.124,10.124,0,0,1,5.7-5.7c3.949-1.566,13.318-1.2,17.682-1.2s13.747-.348,17.682,1.2a10.124,10.124,0,0,1,5.7,5.7c1.566,3.95,1.2,13.321,1.2,17.686S54.952,45.988,53.386,49.924Z" transform="translate(0.005 -2.238)" fill="#fee5db"/>
</svg>
