<svg id="Menu_M_" data-name="Menu (M)" xmlns="http://www.w3.org/2000/svg" width="50" height="35" viewBox="0 0 50 35">
  <path id="Caminho_21" data-name="Caminho 21" d="M52.417,12.375H6.583c-1.146,0-2.083-.506-2.083-1.125h0c0-.619.938-1.125,2.083-1.125H52.417c1.146,0,2.083.506,2.083,1.125h0C54.5,11.869,53.563,12.375,52.417,12.375Z" transform="translate(-4.5 -10.125)" fill="#fee5db"/>
  <path id="Caminho_22" data-name="Caminho 22" d="M52.417,19.125H6.583C5.438,19.125,4.5,18.619,4.5,18h0c0-.619.938-1.125,2.083-1.125H52.417c1.146,0,2.083.506,2.083,1.125h0C54.5,18.619,53.563,19.125,52.417,19.125Z" transform="translate(-4.5 -0.5)" fill="#fee5db"/>
  <path id="Caminho_23" data-name="Caminho 23" d="M52.417,25.875H6.583c-1.146,0-2.083-.506-2.083-1.125h0c0-.619.938-1.125,2.083-1.125H52.417c1.146,0,2.083.506,2.083,1.125h0C54.5,25.369,53.563,25.875,52.417,25.875Z" transform="translate(-4.5 9.125)" fill="#fee5db"/>
</svg>
