<svg id="p._empreendedora_D_" data-name="p. empreendedora (D)" xmlns="http://www.w3.org/2000/svg" xmlns:xlink="http://www.w3.org/1999/xlink" width="150" height="150" viewBox="0 0 150 150">
  <defs>
    <linearGradient id="linear-gradient" x1="0.5" x2="0.5" y2="1" gradientUnits="objectBoundingBox">
      <stop offset="0" stop-color="#ff9300"/>
      <stop offset="1" stop-color="#ff4600"/>
    </linearGradient>
  </defs>
  <g id="Grupo_49" data-name="Grupo 49">
    <g id="Grupo_48" data-name="Grupo 48">
      <g id="Grupo_47" data-name="Grupo 47">
        <path id="Caminho_36" data-name="Caminho 36" d="M297.633,13.038a1.987,1.987,0,0,0,2.1-2.1V2.1a2.1,2.1,0,0,0-4.206,0v8.832A2.261,2.261,0,0,0,297.633,13.038Z" transform="translate(-206.231)" fill="url(#linear-gradient)"/>
        <path id="Caminho_37" data-name="Caminho 37" d="M461.57,186.729h-8.832a2.1,2.1,0,1,0,0,4.206h8.832a1.987,1.987,0,0,0,2.1-2.1A2.107,2.107,0,0,0,461.57,186.729Z" transform="translate(-313.673 -130.322)" fill="url(#linear-gradient)"/>
        <path id="Caminho_38" data-name="Caminho 38" d="M111.656,190.936h8.832a2.1,2.1,0,0,0,0-4.206h-8.832a2.1,2.1,0,0,0,0,4.206Z" transform="translate(-76.343 -130.323)" fill="url(#linear-gradient)"/>
        <path id="Caminho_39" data-name="Caminho 39" d="M409.034,64.1l6.1-6.309a2.082,2.082,0,0,0-2.944-2.944l-6.1,6.309a2.082,2.082,0,0,0,2.944,2.944Z" transform="translate(-281.114 -39.071)" fill="url(#linear-gradient)"/>
        <path id="Caminho_40" data-name="Caminho 40" d="M171.247,64.1a2.082,2.082,0,0,0,2.944-2.944l-6.1-6.309a2.082,2.082,0,1,0-2.944,2.944Z" transform="translate(-114.675 -39.071)" fill="url(#linear-gradient)"/>
        <path id="Caminho_41" data-name="Caminho 41" d="M449.86,249.161l-8.2-3.365a2.071,2.071,0,0,0-1.682,3.785l8.2,3.365a2.086,2.086,0,0,0,2.734-1.052A1.876,1.876,0,0,0,449.86,249.161Z" transform="translate(-305.117 -171.295)" fill="url(#linear-gradient)"/>
        <path id="Caminho_42" data-name="Caminho 42" d="M124.495,120.828l8.2,3.365a2.071,2.071,0,0,0,1.682-3.785l-8.2-3.365a2.087,2.087,0,0,0-2.734,1.052A2.16,2.16,0,0,0,124.495,120.828Z" transform="translate(-85.913 -81.508)" fill="url(#linear-gradient)"/>
        <path id="Caminho_43" data-name="Caminho 43" d="M355.647,25.877a2.087,2.087,0,0,0,2.734-1.052l3.365-8.2a2.071,2.071,0,0,0-3.785-1.682l-3.365,8.2A2.087,2.087,0,0,0,355.647,25.877Z" transform="translate(-247.109 -9.894)" fill="url(#linear-gradient)"/>
        <path id="Caminho_44" data-name="Caminho 44" d="M227.491,25.587a2.071,2.071,0,1,0,3.785-1.682l-3.365-7.991a1.818,1.818,0,0,0-2.523-1.262,2.087,2.087,0,0,0-1.052,2.734Z" transform="translate(-156.344 -10.446)" fill="url(#linear-gradient)"/>
        <path id="Caminho_45" data-name="Caminho 45" d="M133.448,247.3l-8.2,3.365a2.071,2.071,0,1,0,1.682,3.785l7.991-3.365a2.087,2.087,0,0,0,1.052-2.734A1.793,1.793,0,0,0,133.448,247.3Z" transform="translate(-86.442 -172.345)" fill="url(#linear-gradient)"/>
        <path id="Caminho_46" data-name="Caminho 46" d="M438.925,120.882a2.086,2.086,0,0,0,2.734,1.052l7.991-3.365a2.071,2.071,0,1,0-1.682-3.785l-7.991,3.365A2.087,2.087,0,0,0,438.925,120.882Z" transform="translate(-305.117 -79.933)" fill="url(#linear-gradient)"/>
        <path id="Caminho_47" data-name="Caminho 47" d="M207.716,59.318c-17.665,1.146-32.175,16.959-33.857,36.668a42.607,42.607,0,0,0,10.3,32.085,40.617,40.617,0,0,1,10.094,23.834h-3.785a3.261,3.261,0,0,0-2.313,1.146,3.835,3.835,0,0,0-1.052,2.521v15.584a3.48,3.48,0,0,0,3.365,3.667h9.042v5.5h-4.206a2.3,2.3,0,0,0,0,4.583h4.416c.631,4.354,4,7.792,7.991,7.792h4.627c4,0,7.36-3.438,7.991-7.792h4.416a2.3,2.3,0,0,0,0-4.583h-4.206v-5.5h9.042a3.48,3.48,0,0,0,3.365-3.667V155.573a3.48,3.48,0,0,0-3.365-3.667H225.8a42.006,42.006,0,0,1,10.094-24.064,43.173,43.173,0,0,0,10.094-28.189C245.989,76.506,228.535,57.943,207.716,59.318Zm4.837,128.568h-4.627c-2.1,0-4-2.062-4-4.584,0-2.292,0-6.646-.21-8.938h12.618l.21,8.938C216.549,185.824,214.866,187.886,212.553,187.886Zm16.193-31.626v13.522c-21.45.229-19.137,0-37.222.229V156.489C211.5,156.489,202.88,156.489,228.746,156.26Zm4.206-31.855a46.379,46.379,0,0,0-11.146,27.272c-11.987,0-7.15,0-23.132.229a47.334,47.334,0,0,0-11.356-27.043,37.434,37.434,0,0,1-9.043-28.647c1.472-17.418,14.3-31.4,29.862-32.543h1.892c17.454,0,31.964,16.042,31.964,35.752A39.834,39.834,0,0,1,232.951,124.4Z" transform="translate(-114.074 -42.699)" fill="url(#linear-gradient)"/>
        <path id="Caminho_48" data-name="Caminho 48" d="M251.109,105.881l2.734-3.785a2.252,2.252,0,0,0-.21-2.944l-4-4a1.981,1.981,0,0,0-2.734-.21l-3.785,2.944a25.125,25.125,0,0,0-5.467-2.313l-.631-4.837a2.236,2.236,0,0,0-2.1-1.893h-5.888a2.236,2.236,0,0,0-2.1,1.893l-.421,4.837a17.849,17.849,0,0,0-5.467,2.313l-3.785-2.944a1.966,1.966,0,0,0-2.734.21l-4,4.206a1.981,1.981,0,0,0-.21,2.734l2.944,3.785a25.126,25.126,0,0,0-2.313,5.467l-4.626.631a2.236,2.236,0,0,0-1.892,2.1v5.888a2.236,2.236,0,0,0,1.892,2.1l4.626.631a17.85,17.85,0,0,0,2.313,5.467l-2.944,3.786a1.966,1.966,0,0,0,.21,2.734l4,4.206a1.981,1.981,0,0,0,2.734.21l3.785-2.944a25.124,25.124,0,0,0,5.467,2.313l.631,4.837a2.236,2.236,0,0,0,2.1,1.893h5.888a2.236,2.236,0,0,0,2.1-1.893l.631-4.837a17.85,17.85,0,0,0,5.467-2.313L246.9,138.9a3.04,3.04,0,0,0,1.472.421,1.637,1.637,0,0,0,1.472-.631l4-4a1.981,1.981,0,0,0,.21-2.734l-2.944-3.785a25.125,25.125,0,0,0,2.313-5.467l4.627-.631a2.236,2.236,0,0,0,1.892-2.1v-5.888a2.236,2.236,0,0,0-1.892-2.1l-4.627-.631A42.623,42.623,0,0,0,251.109,105.881Zm4.416,12.2-4.206.631c-.841.21-1.682.841-1.682,1.682a18.934,18.934,0,0,1-2.734,6.729,2.681,2.681,0,0,0,0,2.523l2.734,3.575-1.472,1.472-3.365-2.734a1.914,1.914,0,0,0-2.523,0,15.74,15.74,0,0,1-6.729,2.734,2.261,2.261,0,0,0-1.682,1.892L233.235,141h-2.1l-.631-4.416a2.566,2.566,0,0,0-1.682-1.893,20.647,20.647,0,0,1-6.729-2.734,2.681,2.681,0,0,0-2.523,0l-3.365,2.734-1.472-1.472,2.523-3.365a1.919,1.919,0,0,0,0-2.523,18.929,18.929,0,0,1-2.734-6.729,2.282,2.282,0,0,0-1.682-1.682l-4.416-.841v-2.1l4.416-.631c.841-.21,1.682-.841,1.682-1.682a18.934,18.934,0,0,1,2.734-6.729,2.681,2.681,0,0,0,0-2.523l-2.734-3.575,1.472-1.472,3.365,2.523a1.919,1.919,0,0,0,2.523,0,17.925,17.925,0,0,1,6.519-2.734,2.261,2.261,0,0,0,1.682-1.892l.631-4.416h2.1l.841,4.837a2.566,2.566,0,0,0,1.682,1.892,20.647,20.647,0,0,1,6.729,2.734,2.681,2.681,0,0,0,2.523,0l3.365-2.734,1.472,1.472-2.734,3.575a1.914,1.914,0,0,0,0,2.523,15.74,15.74,0,0,1,2.734,6.729,2.282,2.282,0,0,0,1.682,1.682l4.416.631v1.893Z" transform="translate(-139.766 -60.731)" fill="url(#linear-gradient)"/>
        <path id="Caminho_49" data-name="Caminho 49" d="M269.415,143.059A13.038,13.038,0,1,0,282.453,156.1,13.1,13.1,0,0,0,269.415,143.059Zm0,21.87a8.832,8.832,0,1,1,8.832-8.832A8.886,8.886,0,0,1,269.415,164.929Z" transform="translate(-177.768 -99.213)" fill="url(#linear-gradient)"/>
        <path id="Caminho_50" data-name="Caminho 50" d="M61.569,314.385a14.51,14.51,0,1,0-14.51-14.51A14.539,14.539,0,0,0,61.569,314.385Zm0-24.814a10.3,10.3,0,1,1-10.3,10.3A10.321,10.321,0,0,1,61.569,289.571Z" transform="translate(-34.021 -197.695)" fill="url(#linear-gradient)"/>
        <path id="Caminho_51" data-name="Caminho 51" d="M30.238,393.035H25.611A25.309,25.309,0,0,0,.376,418.27v1.682a1.987,1.987,0,0,0,2.1,2.1H53.37a1.987,1.987,0,0,0,2.1-2.1V418.27A25.309,25.309,0,0,0,30.238,393.035ZM4.582,417.849a21.006,21.006,0,0,1,21.029-20.609h4.627a21.145,21.145,0,0,1,21.029,20.609Z" transform="translate(-0.376 -272.266)" fill="url(#linear-gradient)"/>
      </g>
    </g>
  </g>
</svg>
