<svg id="saúde_D_" data-name="saúde  (D)" xmlns="http://www.w3.org/2000/svg" xmlns:xlink="http://www.w3.org/1999/xlink" width="180" height="150" viewBox="0 0 180 150">
  <defs>
    <linearGradient id="linear-gradient" x1="0.5" x2="0.5" y2="1" gradientUnits="objectBoundingBox">
      <stop offset="0" stop-color="#ff9300"/>
      <stop offset="1" stop-color="#ff4600"/>
    </linearGradient>
  </defs>
  <g id="Grupo_59" data-name="Grupo 59">
    <g id="Grupo_58" data-name="Grupo 58">
      <path id="Caminho_56" data-name="Caminho 56" d="M176.92,128.283H161.692c6.331-16.364,5.646-29.61,3.251-38.571-4.106-15.974-17.966-33.312-38.5-33.312a42.984,42.984,0,0,0-16.6,3.507A82.747,82.747,0,0,0,90.684,70.816,78.988,78.988,0,0,0,71.521,59.906a43.636,43.636,0,0,0-16.6-3.507c-20.532,0-34.392,17.338-38.5,33.312-2.4,9.545-3.251,23.961,4.791,42.078H2.738a3.143,3.143,0,0,0,0,6.234h21.73a41.971,41.971,0,0,0,3.08,5.26c17.795,29.221,56.464,60.974,63.479,62.922v.195a.5.5,0,0,0,.342-.195h.513v-.195c5.989-3.312,43.118-30.584,62.624-62.922a73.92,73.92,0,0,0,4.791-8.766h17.966A2.908,2.908,0,0,0,180,131.205,3.013,3.013,0,0,0,176.92,128.283Zm-27.376,11.493c-18.137,30.195-51.5,54.545-58.688,59.805C83.5,194.322,50.3,169.777,32,139.777l-1.027-1.753H56.122a2.8,2.8,0,0,0,2.567-1.753l11.464-25.714,17.966,52.4a2.823,2.823,0,0,0,2.567,1.948h.171a2.825,2.825,0,0,0,2.567-2.338l15.741-61.364,8.384,30.974a2.919,2.919,0,0,0,2.224,2.143,2.82,2.82,0,0,0,2.738-1.364l6.673-11.1,5.646,10.909a2.687,2.687,0,0,0,2.4,1.558h15.4C151.6,136.27,150.57,138.023,149.544,139.777Zm6.16-11.493H138.935l-7.015-13.636a2.687,2.687,0,0,0-2.4-1.558,2.508,2.508,0,0,0-2.4,1.364l-5.818,9.74L111.9,89.322a3.26,3.26,0,0,0-2.738-2.338,3.006,3.006,0,0,0-2.738,2.338L90.513,151.854l-17.281-50.26a2.59,2.59,0,0,0-4.962-.195L54.753,131.595H27.548c-6.844-14.221-8.726-27.857-5.646-40.13C25.494,77.634,37.3,62.829,55.1,62.829A40.64,40.64,0,0,1,69.81,65.945a80.52,80.52,0,0,1,19.335,11.3,2.369,2.369,0,0,0,3.422,0s6.673-6.039,19.335-11.3a36.946,36.946,0,0,1,14.715-3.117c17.624,0,29.6,14.805,33.194,28.636C162.719,102.764,161.179,115.231,155.7,128.283Z" transform="translate(0 -56.4)" fill="url(#linear-gradient)"/>
    </g>
  </g>
</svg>
